<?xml version="1.0" standalone="no"?>
<!DOCTYPE svg PUBLIC "-//W3C//DTD SVG 20010904//EN"
 "http://www.w3.org/TR/2001/REC-SVG-20010904/DTD/svg10.dtd">
<svg version="1.0" xmlns="http://www.w3.org/2000/svg"
 width="128.000000pt" height="128.000000pt" viewBox="0 0 128.000000 128.000000"
 preserveAspectRatio="xMidYMid meet">
<metadata>
Created by potrace 1.14, written by Peter Selinger 2001-2017
</metadata>
<g transform="translate(0.000000,128.000000) scale(0.100000,-0.100000)"
fill="#000000" stroke="none">
<path d="M313 1268 c-6 -7 -13 -26 -15 -43 l-3 -30 -86 -1 c-110 -1 -131 -7
-150 -41 -15 -25 -16 -87 -15 -566 l1 -539 28 -24 28 -24 544 0 543 0 26 31
26 31 0 528 c0 311 -4 539 -10 554 -15 40 -46 51 -150 51 l-95 0 -3 33 c-7 69
-83 64 -87 -5 l-1 -28 -253 0 -254 0 -3 34 c-5 41 -3 38 -35 46 -16 4 -30 1
-36 -7z"/>
</g>
</svg>
